<svg width="250" height="162" viewBox="0 0 250 162" fill="none" xmlns="http://www.w3.org/2000/svg">
<path d="M69.1721 88.5077C69.4359 88.5438 69.7036 88.5438 69.9694 88.5624H84.9186C85.1844 88.5448 85.4521 88.5448 85.7159 88.5077C86.2445 88.4354 86.7614 88.2898 87.2519 88.0768C89.7972 86.9707 91.1895 84.0991 90.6521 81.5137C90.2114 79.3925 88.5484 77.6406 86.4985 77.066C86.2426 76.9937 85.9768 76.9576 85.7159 76.9029C85.4502 76.8843 85.1844 76.8667 84.9186 76.8481H69.9694C69.263 76.896 69.0763 76.8726 68.3895 77.0651C67.8755 77.2087 67.3831 77.4227 66.9268 77.7002C64.8525 78.9616 63.7484 81.5518 64.2359 83.8958C64.7333 86.2907 66.7998 88.1813 69.1721 88.5077Z" fill="url(#paint0_linear_534_1045)"/>
<path d="M35.0492 41.6581C35.313 41.6942 35.5807 41.6942 35.8465 41.7128H50.7957C51.0615 41.6942 51.3292 41.6942 51.593 41.6581C52.1216 41.5858 52.6385 41.4412 53.129 41.2281C55.6742 40.1221 57.0666 37.2504 56.5292 34.6651C56.0885 32.5438 54.4255 30.7919 52.3756 30.2174C52.1196 30.1451 51.8539 30.1089 51.593 30.0542C51.3272 30.0357 51.0615 30.0181 50.7957 29.9995H35.8465C35.1401 30.0474 34.9534 30.0239 34.2666 30.2164C33.7526 30.3601 33.2602 30.574 32.8039 30.8515C30.7296 32.1129 29.6254 34.7022 30.113 37.0472C30.6103 39.4411 32.6769 41.3317 35.0492 41.6581Z" fill="url(#paint1_linear_534_1045)"/>
<path d="M48.1704 77.066C47.9144 76.9937 47.6486 76.9576 47.3877 76.9029C47.122 76.8843 46.8562 76.8667 46.5905 76.8481H38.5091C37.8026 76.896 37.616 76.8726 36.9292 77.0651C36.4152 77.2087 35.9228 77.4227 35.4665 77.7002C33.3921 78.9616 32.288 81.5518 32.7756 83.8958C33.2729 86.2887 35.3395 88.1804 37.7118 88.5057C37.9756 88.5419 38.2433 88.5419 38.5091 88.5604H46.5905C46.8562 88.5429 47.1239 88.5429 47.3877 88.5057C47.9163 88.4334 48.4332 88.2878 48.9237 88.0748C51.469 86.9688 52.8613 84.0971 52.3249 81.5118C51.8833 79.3925 50.2213 77.6406 48.1704 77.066Z" fill="url(#paint2_linear_534_1045)"/>
<path d="M77.3975 120.505C77.1416 120.433 76.8758 120.397 76.6149 120.342C76.3492 120.323 76.0834 120.306 75.8176 120.287H67.7362C67.0298 120.336 66.8432 120.312 66.1563 120.504C65.6414 120.648 65.1499 120.862 64.6936 121.139C62.6193 122.401 61.5152 124.99 62.0028 127.335C62.5001 129.728 64.5666 131.619 66.939 131.945C67.2028 131.981 67.4705 131.981 67.7362 131.999H75.8176C76.0834 131.981 76.3511 131.981 76.6149 131.945C77.1435 131.872 77.6604 131.727 78.1509 131.515C80.6961 130.409 82.0885 127.537 81.5511 124.952C81.1114 122.832 79.4484 121.08 77.3975 120.505Z" fill="url(#paint3_linear_534_1045)"/>
<path d="M219.472 57.6676C219.47 57.6197 219.468 57.5718 219.464 57.5239C219.457 57.3793 219.449 57.2347 219.427 57.0921C219.291 56.1892 218.88 55.3353 218.258 54.666C217.938 54.3201 217.775 54.2058 217.486 54.0133C217.419 53.9654 217.35 53.9195 217.279 53.8755C217.252 53.857 217.224 53.8374 217.193 53.8179L176.976 30.5985C176.771 30.4998 176.572 30.3855 176.36 30.3024C175.793 30.0796 175.631 30.0894 175.033 29.9995C174.827 29.9995 174.623 30.0005 174.419 30.0103C174.367 30.0064 174.314 30.0034 174.263 29.9995H75.8166C75.1102 30.0474 74.9236 30.0239 74.2367 30.2164C73.7218 30.3601 73.2303 30.574 72.774 30.8515C70.6997 32.1129 69.5956 34.7022 70.0831 37.0472C70.5805 39.4401 72.647 41.3317 75.0193 41.6571C75.2831 41.6932 75.5508 41.6932 75.8166 41.7118H103.016C103.286 41.7372 103.723 41.7773 103.992 41.8027C104.193 41.8398 104.393 41.874 104.589 41.9287C106.64 42.5032 108.302 44.2561 108.743 46.3764C109.28 48.9618 107.888 51.8334 105.343 52.9395C104.853 53.1525 104.336 53.2971 103.807 53.3694C103.543 53.4055 103.275 53.4055 103.01 53.4241H35.8465C35.14 53.472 34.9534 53.4485 34.2666 53.641C33.7526 53.7846 33.2602 53.9986 32.8039 54.2761C30.7295 55.5375 29.6254 58.1268 30.113 60.4718C30.6103 62.8647 32.6769 64.7563 35.0492 65.0817C35.313 65.1178 35.5807 65.1178 35.8465 65.1364H116.706C116.976 65.1618 117.413 65.2019 117.682 65.2273C117.883 65.2644 118.083 65.2986 118.279 65.3533C120.329 65.9278 121.992 67.6807 122.433 69.801C122.97 72.3864 121.578 75.258 119.033 76.3641C118.543 76.5771 118.026 76.7217 117.497 76.795C117.233 76.8311 116.965 76.8311 116.699 76.8497H104.686C103.98 76.8976 103.793 76.8741 103.106 77.0666C102.592 77.2102 102.1 77.4242 101.644 77.7017C99.5693 78.9631 98.4661 81.5534 98.9527 83.8974C99.4501 86.2903 101.517 88.1819 103.889 88.5073C104.153 88.5434 104.42 88.5434 104.686 88.562H134.331C136.935 88.562 139.045 86.4515 139.045 83.8475V67.2195C139.045 66.5375 139.784 66.1105 140.375 66.4515L161.124 78.4316C166.696 81.6481 170.129 87.5937 170.129 94.0278V104.508C170.129 111.181 162.905 115.352 157.126 112.015L140.091 102.159C139.51 101.823 139.084 101.262 138.949 100.605C138.51 98.4608 136.608 96.8623 134.331 96.8623H60.2215C59.5151 96.9102 59.3285 96.8867 58.6416 97.0792C58.1267 97.2228 57.6352 97.4368 57.1789 97.7143C55.1046 98.9757 54.0015 101.565 54.4881 103.91C54.9854 106.303 57.0519 108.195 59.4242 108.52C59.688 108.556 59.9558 108.556 60.2215 108.575H110.215C110.485 108.6 110.922 108.64 111.192 108.665C111.392 108.703 111.592 108.737 111.789 108.792C113.838 109.366 115.501 111.119 115.942 113.239C116.479 115.825 115.087 118.696 112.542 119.802C112.052 120.015 111.535 120.16 111.006 120.233C110.742 120.269 110.474 120.269 110.209 120.288H95.4587C94.7523 120.336 94.5657 120.312 93.8788 120.505C93.3648 120.648 92.8724 120.862 92.4161 121.14C90.3418 122.401 89.2377 124.991 89.7252 127.336C90.2226 129.728 92.2891 131.62 94.6614 131.945C94.9252 131.982 95.1929 131.982 95.4587 132H174.405C174.437 131.998 174.467 131.996 174.498 131.995C174.568 131.998 174.638 132.001 174.708 132C174.818 132.001 174.927 131.996 175.035 131.988C175.157 131.98 175.277 131.965 175.396 131.945C175.726 131.895 176.052 131.808 176.363 131.685C176.477 131.641 176.585 131.587 176.694 131.532C176.708 131.526 176.724 131.521 176.738 131.515C177.09 131.361 177.42 131.173 177.725 130.957L217.195 108.169C217.383 108.041 217.581 107.927 217.759 107.784C218.472 107.215 219.007 106.432 219.275 105.559C219.455 104.977 219.433 104.816 219.479 104.213V57.7731C219.476 57.7379 219.474 57.7028 219.472 57.6676ZM176.248 40.724L204.592 57.0882C205.119 57.392 205.119 58.1532 204.592 58.4571L199.03 61.6678C198.079 62.2178 196.905 62.2178 195.954 61.6678L167.745 45.3808C167.15 45.0378 167.15 44.1809 167.745 43.8379L173.14 40.723C174.101 40.169 175.287 40.169 176.248 40.724ZM173.156 74.831L144.947 58.545C144.352 58.202 144.352 57.3451 144.947 57.0022L150.343 53.8872C151.304 53.3323 152.49 53.3323 153.451 53.8872L181.794 70.2514C182.321 70.5553 182.321 71.3165 181.794 71.6203L176.232 74.831C175.281 75.3801 174.107 75.3801 173.156 74.831ZM210.344 100.361C210.344 101.113 209.943 101.807 209.292 102.183L182.416 117.701C181.014 118.511 179.26 117.498 179.26 115.878V84.8442C179.26 84.0928 179.661 83.3981 180.313 83.0219L187.551 78.8429C187.555 84.2257 187.562 91.8938 187.566 95.7377C187.567 96.8056 188.721 97.471 189.65 96.9424L200.931 90.5161C201.628 90.1194 202.058 89.3788 202.058 88.5766V70.4664L207.188 67.5048C208.59 66.6948 210.344 67.7071 210.344 69.3271V100.361Z" fill="url(#paint4_linear_534_1045)"/>
<defs>
<linearGradient id="paint0_linear_534_1045" x1="90.9063" y1="82.1866" x2="64.9717" y2="82.1866" gradientUnits="userSpaceOnUse">
<stop stop-color="#01A6FF"/>
<stop offset="1" stop-color="#0C395F"/>
</linearGradient>
<linearGradient id="paint1_linear_534_1045" x1="55.9509" y1="35.9547" x2="30.0163" y2="35.9547" gradientUnits="userSpaceOnUse">
<stop stop-color="#01A6FF"/>
<stop offset="1" stop-color="#0C395F"/>
</linearGradient>
<linearGradient id="paint2_linear_534_1045" x1="51.4405" y1="82.1866" x2="33.399" y2="82.1866" gradientUnits="userSpaceOnUse">
<stop stop-color="#01A6FF"/>
<stop offset="1" stop-color="#0C395F"/>
</linearGradient>
<linearGradient id="paint3_linear_534_1045" x1="81.8856" y1="126.163" x2="61.5889" y2="126.163" gradientUnits="userSpaceOnUse">
<stop stop-color="#01A6FF"/>
<stop offset="1" stop-color="#0C395F"/>
</linearGradient>
<linearGradient id="paint4_linear_534_1045" x1="219.452" y1="75.4208" x2="-97.4017" y2="69.7829" gradientUnits="userSpaceOnUse">
<stop stop-color="#01A6FF"/>
<stop offset="1" stop-color="#0C395F"/>
</linearGradient>
</defs>
</svg>
