<svg width="444" height="102" viewBox="0 0 444 102" fill="none" xmlns="http://www.w3.org/2000/svg">
<path d="M39.1734 58.5082C39.4372 58.5443 39.705 58.5443 39.9708 58.5629H54.92C55.1858 58.5453 55.4534 58.5453 55.7172 58.5082C56.2458 58.4359 56.7628 58.2903 57.2533 58.0773C59.7986 56.9712 61.1909 54.0996 60.6535 51.5142C60.2128 49.393 58.5497 47.6411 56.4998 47.0665C56.2439 46.9942 55.9781 46.9581 55.7172 46.9034C55.4515 46.8848 55.1858 46.8672 54.92 46.8486H39.9708C39.2644 46.8965 39.0777 46.8731 38.3909 47.0656C37.8769 47.2092 37.3845 47.4232 36.9282 47.7007C34.8539 48.9621 33.7498 51.5523 34.2373 53.8963C34.7347 56.2912 36.8011 58.1818 39.1734 58.5082Z" fill="url(#paint0_linear_204_1073)"/>
<path d="M5.05056 11.6586C5.31436 11.6947 5.58206 11.6947 5.84786 11.7133H20.7971C21.0629 11.6947 21.3306 11.6947 21.5944 11.6586C22.123 11.5863 22.6399 11.4417 23.1304 11.2286C25.6756 10.1226 27.068 7.2509 26.5306 4.6656C26.0899 2.5443 24.4269 0.792399 22.377 0.217899C22.121 0.145599 21.8553 0.109399 21.5944 0.0546989C21.3286 0.0361989 21.0629 0.0186 20.7971 0H5.84786C5.14146 0.0479 4.95476 0.0243999 4.26796 0.2169C3.75396 0.3606 3.26156 0.574499 2.80526 0.851999C0.730962 2.1134 -0.373239 4.7027 0.114361 7.0477C0.611661 9.4416 2.67826 11.3322 5.05056 11.6586Z" fill="url(#paint1_linear_204_1073)"/>
<path d="M18.1718 47.0665C17.9158 46.9942 17.65 46.9581 17.3891 46.9034C17.1234 46.8848 16.8576 46.8672 16.5919 46.8486H8.51047C7.80397 46.8965 7.61736 46.8731 6.93056 47.0656C6.41656 47.2092 5.92416 47.4232 5.46786 47.7007C3.39346 48.9621 2.28937 51.5523 2.77697 53.8963C3.27427 56.2892 5.34086 58.1809 7.71316 58.5062C7.97696 58.5424 8.24467 58.5424 8.51047 58.5609H16.5919C16.8576 58.5434 17.1253 58.5434 17.3891 58.5062C17.9177 58.4339 18.4346 58.2883 18.9251 58.0753C21.4704 56.9693 22.8627 54.0976 22.3263 51.5123C21.8847 49.393 20.2227 47.6411 18.1718 47.0665Z" fill="url(#paint2_linear_204_1073)"/>
<path d="M47.3988 90.5061C47.1429 90.4341 46.8771 90.3981 46.6162 90.3431C46.3505 90.3241 46.0847 90.3071 45.8189 90.2881H37.7375C37.0311 90.3371 36.8445 90.3131 36.1576 90.5051C35.6427 90.6491 35.1512 90.8631 34.6949 91.1401C32.6206 92.4021 31.5165 94.9911 32.0041 97.3361C32.5014 99.7291 34.5679 101.62 36.9403 101.946C37.2041 101.982 37.4718 101.982 37.7375 102H45.8189C46.0847 101.982 46.3524 101.982 46.6162 101.946C47.1448 101.873 47.6617 101.728 48.1522 101.516C50.6974 100.41 52.0898 97.5381 51.5524 94.9531C51.1127 92.8331 49.4497 91.0811 47.3988 90.5061Z" fill="url(#paint3_linear_204_1073)"/>
<path d="M189.473 27.6681C189.471 27.6202 189.469 27.5723 189.465 27.5244C189.458 27.3798 189.45 27.2352 189.428 27.0926C189.292 26.1897 188.881 25.3358 188.259 24.6665C187.939 24.3206 187.776 24.2063 187.487 24.0138C187.42 23.9659 187.351 23.92 187.28 23.876C187.253 23.8575 187.225 23.8379 187.194 23.8184L146.977 0.598999C146.772 0.500299 146.573 0.386 146.361 0.3029C145.794 0.0801003 145.632 0.0899 145.034 0C144.828 0 144.624 0.000999408 144.42 0.0107994C144.368 0.00689941 144.315 0.0039 144.264 0H45.818C45.1116 0.0479 44.925 0.0243999 44.2381 0.2169C43.7232 0.3606 43.2317 0.574499 42.7754 0.851999C40.7011 2.1134 39.597 4.7027 40.0845 7.0477C40.5819 9.4406 42.6484 11.3322 45.0207 11.6576C45.2845 11.6937 45.5522 11.6937 45.818 11.7123H73.0174C73.2874 11.7377 73.7244 11.7778 73.9934 11.8032C74.1944 11.8403 74.3944 11.8745 74.5904 11.9292C76.6414 12.5037 78.3034 14.2566 78.7444 16.3769C79.2814 18.9623 77.8894 21.8339 75.3444 22.94C74.8544 23.153 74.3374 23.2976 73.8084 23.3699C73.5444 23.406 73.2764 23.406 73.0114 23.4246H5.84787C5.14137 23.4725 4.95477 23.449 4.26797 23.6415C3.75397 23.7851 3.26157 23.9991 2.80527 24.2766C0.730869 25.538 -0.373232 28.1273 0.114368 30.4723C0.611668 32.8652 2.67827 34.7568 5.05057 35.0822C5.31437 35.1183 5.58207 35.1183 5.84787 35.1369H86.7074C86.9774 35.1623 87.4144 35.2024 87.6834 35.2278C87.8844 35.2649 88.0844 35.2991 88.2804 35.3538C90.3304 35.9283 91.9934 37.6812 92.4344 39.8015C92.9714 42.3869 91.5794 45.2585 89.0344 46.3646C88.5444 46.5776 88.0274 46.7222 87.4984 46.7955C87.2344 46.8316 86.9664 46.8316 86.7004 46.8502H74.6874C73.9814 46.8981 73.7944 46.8746 73.1074 47.0671C72.5934 47.2107 72.1014 47.4247 71.6454 47.7022C69.5707 48.9636 68.4675 51.5539 68.9541 53.8979C69.4515 56.2908 71.5184 58.1824 73.8904 58.5078C74.1544 58.5439 74.4214 58.5439 74.6874 58.5625H104.332C106.936 58.5625 109.046 56.452 109.046 53.848V37.22C109.046 36.538 109.785 36.111 110.376 36.452L131.125 48.4321C136.697 51.6486 140.13 57.5942 140.13 64.0283V74.5085C140.13 81.1815 132.906 85.3525 127.127 82.0155L110.092 72.1595C109.511 71.8235 109.085 71.2625 108.95 70.6055C108.511 68.4613 106.609 66.8628 104.332 66.8628H30.2229C29.5165 66.9107 29.3299 66.8872 28.643 67.0797C28.1281 67.2233 27.6366 67.4373 27.1803 67.7148C25.106 68.9762 24.0029 71.5655 24.4895 73.9105C24.9868 76.3035 27.0533 78.1955 29.4256 78.5205C29.6894 78.5565 29.9572 78.5565 30.2229 78.5755H80.2164C80.4864 78.6005 80.9234 78.6405 81.1934 78.6655C81.3934 78.7035 81.5934 78.7375 81.7904 78.7925C83.8394 79.3665 85.5024 81.1195 85.9434 83.2395C86.4804 85.8255 85.0884 88.6965 82.5434 89.8025C82.0534 90.0155 81.5364 90.1605 81.0074 90.2335C80.7434 90.2695 80.4754 90.2695 80.2104 90.2885H65.4601C64.7537 90.3365 64.5671 90.3125 63.8802 90.5055C63.3662 90.6485 62.8738 90.8625 62.4175 91.1405C60.3432 92.4015 59.2391 94.9915 59.7266 97.3365C60.224 99.7285 62.2905 101.621 64.6628 101.946C64.9266 101.983 65.1943 101.983 65.4601 102.001H144.406C144.438 101.999 144.468 101.996 144.499 101.995C144.569 101.998 144.639 102.002 144.709 102.001C144.819 102.002 144.928 101.997 145.036 101.989C145.158 101.981 145.278 101.966 145.397 101.946C145.727 101.896 146.053 101.809 146.364 101.686C146.478 101.642 146.586 101.588 146.695 101.533C146.709 101.527 146.725 101.522 146.739 101.516C147.091 101.362 147.421 101.174 147.726 100.958L187.196 78.1695C187.384 78.0415 187.582 77.9275 187.76 77.7845C188.473 77.2155 189.008 76.4325 189.276 75.5595C189.456 74.9775 189.434 74.8165 189.48 74.2135V27.7736C189.477 27.7384 189.475 27.7033 189.473 27.6681ZM146.249 10.7245L174.593 27.0887C175.12 27.3925 175.12 28.1537 174.593 28.4576L169.031 31.6683C168.08 32.2183 166.906 32.2183 165.955 31.6683L137.746 15.3813C137.151 15.0383 137.151 14.1814 137.746 13.8384L143.141 10.7235C144.102 10.1695 145.288 10.1695 146.249 10.7245ZM143.157 44.8315L114.948 28.5455C114.353 28.2025 114.353 27.3456 114.948 27.0027L120.344 23.8877C121.305 23.3328 122.491 23.3328 123.452 23.8877L151.795 40.2519C152.322 40.5558 152.322 41.317 151.795 41.6208L146.233 44.8315C145.282 45.3806 144.108 45.3806 143.157 44.8315ZM180.345 70.3615C180.345 71.1135 179.944 71.8075 179.293 72.1835L152.417 87.7015C151.015 88.5115 149.261 87.4985 149.261 85.8785V54.8447C149.261 54.0933 149.662 53.3986 150.314 53.0224L157.552 48.8434C157.556 54.2262 157.563 61.8943 157.567 65.7382C157.568 66.8061 158.722 67.4715 159.651 66.9429L170.932 60.5166C171.629 60.1199 172.059 59.3793 172.059 58.5771V40.4669L177.189 37.5053C178.591 36.6953 180.345 37.7076 180.345 39.3276V70.3615Z" fill="url(#paint4_linear_204_1073)"/>
<path d="M218.937 42.36C216.897 42.36 215.145 42.012 213.681 41.316C212.241 40.62 210.933 39.576 209.757 38.184L212.997 34.944C213.741 35.928 214.605 36.696 215.589 37.248C216.573 37.776 217.773 38.04 219.189 38.04C220.461 38.04 221.469 37.788 222.213 37.284C222.981 36.78 223.365 36.084 223.365 35.196C223.365 34.428 223.149 33.804 222.717 33.324C222.285 32.844 221.709 32.436 220.989 32.1C220.293 31.764 219.513 31.464 218.649 31.2C217.809 30.912 216.957 30.588 216.093 30.228C215.253 29.868 214.473 29.424 213.753 28.896C213.057 28.344 212.493 27.648 212.061 26.808C211.629 25.944 211.413 24.864 211.413 23.568C211.413 22.032 211.785 20.724 212.529 19.644C213.273 18.564 214.293 17.736 215.589 17.16C216.885 16.584 218.349 16.296 219.981 16.296C221.709 16.296 223.269 16.62 224.661 17.268C226.053 17.916 227.193 18.756 228.081 19.788L224.841 23.028C224.097 22.212 223.329 21.612 222.537 21.228C221.769 20.844 220.893 20.652 219.909 20.652C218.781 20.652 217.893 20.868 217.245 21.3C216.597 21.732 216.273 22.356 216.273 23.172C216.273 23.868 216.489 24.432 216.921 24.864C217.353 25.296 217.917 25.668 218.613 25.98C219.333 26.292 220.113 26.592 220.953 26.88C221.817 27.168 222.669 27.492 223.509 27.852C224.373 28.212 225.153 28.68 225.849 29.256C226.569 29.832 227.145 30.576 227.577 31.488C228.009 32.376 228.225 33.48 228.225 34.8C228.225 37.152 227.397 39 225.741 40.344C224.085 41.688 221.817 42.36 218.937 42.36ZM239.721 42.36C238.185 42.36 236.817 42.036 235.617 41.388C234.441 40.74 233.517 39.84 232.845 38.688C232.173 37.536 231.837 36.204 231.837 34.692V24.612H236.589V34.584C236.589 35.304 236.709 35.928 236.949 36.456C237.189 36.96 237.549 37.344 238.029 37.608C238.509 37.872 239.073 38.004 239.721 38.004C240.705 38.004 241.473 37.704 242.025 37.104C242.577 36.504 242.853 35.664 242.853 34.584V24.612H247.569V34.692C247.569 36.228 247.233 37.572 246.561 38.724C245.913 39.876 244.989 40.776 243.789 41.424C242.613 42.048 241.257 42.36 239.721 42.36ZM261.693 42.36C260.445 42.36 259.317 42.108 258.309 41.604C257.301 41.076 256.497 40.368 255.897 39.48C255.297 38.592 254.973 37.572 254.925 36.42V30.264C254.973 29.112 255.297 28.092 255.897 27.204C256.521 26.292 257.325 25.572 258.309 25.044C259.317 24.516 260.445 24.252 261.693 24.252C263.301 24.252 264.741 24.648 266.013 25.44C267.285 26.232 268.281 27.312 269.001 28.68C269.745 30.048 270.117 31.596 270.117 33.324C270.117 35.028 269.745 36.564 269.001 37.932C268.281 39.3 267.285 40.38 266.013 41.172C264.741 41.964 263.301 42.36 261.693 42.36ZM252.045 49.272V24.612H256.761V29.184L255.969 33.396L256.725 37.608V49.272H252.045ZM260.865 38.004C261.729 38.004 262.497 37.812 263.169 37.428C263.841 37.02 264.357 36.468 264.717 35.772C265.101 35.052 265.293 34.224 265.293 33.288C265.293 32.376 265.101 31.572 264.717 30.876C264.357 30.156 263.841 29.604 263.169 29.22C262.497 28.812 261.729 28.608 260.865 28.608C260.025 28.608 259.269 28.812 258.597 29.22C257.925 29.604 257.397 30.156 257.013 30.876C256.653 31.572 256.473 32.376 256.473 33.288C256.473 34.224 256.653 35.052 257.013 35.772C257.397 36.468 257.913 37.02 258.561 37.428C259.233 37.812 260.001 38.004 260.865 38.004ZM283.577 42.36C282.329 42.36 281.201 42.108 280.193 41.604C279.185 41.076 278.381 40.368 277.781 39.48C277.181 38.592 276.857 37.572 276.809 36.42V30.264C276.857 29.112 277.181 28.092 277.781 27.204C278.405 26.292 279.209 25.572 280.193 25.044C281.201 24.516 282.329 24.252 283.577 24.252C285.185 24.252 286.625 24.648 287.897 25.44C289.169 26.232 290.165 27.312 290.885 28.68C291.629 30.048 292.001 31.596 292.001 33.324C292.001 35.028 291.629 36.564 290.885 37.932C290.165 39.3 289.169 40.38 287.897 41.172C286.625 41.964 285.185 42.36 283.577 42.36ZM273.929 49.272V24.612H278.645V29.184L277.853 33.396L278.609 37.608V49.272H273.929ZM282.749 38.004C283.613 38.004 284.381 37.812 285.053 37.428C285.725 37.02 286.241 36.468 286.601 35.772C286.985 35.052 287.177 34.224 287.177 33.288C287.177 32.376 286.985 31.572 286.601 30.876C286.241 30.156 285.725 29.604 285.053 29.22C284.381 28.812 283.613 28.608 282.749 28.608C281.909 28.608 281.153 28.812 280.481 29.22C279.809 29.604 279.281 30.156 278.897 30.876C278.537 31.572 278.357 32.376 278.357 33.288C278.357 34.224 278.537 35.052 278.897 35.772C279.281 36.468 279.797 37.02 280.445 37.428C281.117 37.812 281.885 38.004 282.749 38.004ZM295.813 42V15.972H300.529V42H295.813ZM310.9 42.144L303.628 24.612H308.74L313.564 38.004H311.836L316.84 24.612H321.988L314.248 42.144H310.9ZM306.076 49.272L311.368 38.076L314.248 42.144L311.08 49.272H306.076ZM345.088 42.36C343.24 42.36 341.524 42.036 339.94 41.388C338.356 40.716 336.964 39.792 335.764 38.616C334.588 37.416 333.676 36.024 333.028 34.44C332.404 32.856 332.092 31.152 332.092 29.328C332.092 27.504 332.404 25.8 333.028 24.216C333.676 22.632 334.588 21.252 335.764 20.076C336.964 18.9 338.344 17.976 339.904 17.304C341.488 16.632 343.216 16.296 345.088 16.296C347.104 16.296 348.88 16.632 350.416 17.304C351.952 17.952 353.308 18.852 354.484 20.004L351.172 23.316C350.476 22.548 349.624 21.948 348.616 21.516C347.608 21.084 346.432 20.868 345.088 20.868C343.912 20.868 342.832 21.072 341.848 21.48C340.888 21.864 340.048 22.44 339.328 23.208C338.608 23.952 338.056 24.852 337.672 25.908C337.288 26.94 337.096 28.08 337.096 29.328C337.096 30.6 337.288 31.752 337.672 32.784C338.056 33.816 338.608 34.716 339.328 35.484C340.048 36.228 340.888 36.804 341.848 37.212C342.832 37.62 343.912 37.824 345.088 37.824C346.504 37.824 347.716 37.608 348.724 37.176C349.756 36.744 350.62 36.132 351.316 35.34L354.628 38.652C353.452 39.828 352.084 40.74 350.524 41.388C348.964 42.036 347.152 42.36 345.088 42.36ZM369.948 42V32.028C369.948 30.996 369.624 30.156 368.976 29.508C368.328 28.86 367.488 28.536 366.456 28.536C365.784 28.536 365.184 28.68 364.656 28.968C364.128 29.256 363.708 29.664 363.396 30.192C363.108 30.72 362.964 31.332 362.964 32.028L361.128 31.092C361.128 29.724 361.416 28.536 361.992 27.528C362.568 26.496 363.36 25.692 364.368 25.116C365.4 24.54 366.576 24.252 367.896 24.252C369.216 24.252 370.38 24.54 371.388 25.116C372.42 25.692 373.224 26.484 373.8 27.492C374.376 28.5 374.664 29.664 374.664 30.984V42H369.948ZM358.248 42V15.972H362.964V42H358.248ZM386.455 42.36C384.871 42.36 383.443 41.964 382.171 41.172C380.899 40.38 379.903 39.3 379.183 37.932C378.463 36.564 378.103 35.028 378.103 33.324C378.103 31.596 378.463 30.048 379.183 28.68C379.903 27.312 380.899 26.232 382.171 25.44C383.443 24.648 384.871 24.252 386.455 24.252C387.703 24.252 388.819 24.504 389.803 25.008C390.787 25.512 391.567 26.22 392.143 27.132C392.743 28.02 393.067 29.028 393.115 30.156V36.42C393.067 37.572 392.743 38.592 392.143 39.48C391.567 40.368 390.787 41.076 389.803 41.604C388.819 42.108 387.703 42.36 386.455 42.36ZM387.319 38.004C388.639 38.004 389.707 37.572 390.523 36.708C391.339 35.82 391.747 34.68 391.747 33.288C391.747 32.376 391.555 31.572 391.171 30.876C390.811 30.156 390.295 29.604 389.623 29.22C388.975 28.812 388.207 28.608 387.319 28.608C386.455 28.608 385.687 28.812 385.015 29.22C384.367 29.604 383.851 30.156 383.467 30.876C383.107 31.572 382.927 32.376 382.927 33.288C382.927 34.224 383.107 35.052 383.467 35.772C383.851 36.468 384.367 37.02 385.015 37.428C385.687 37.812 386.455 38.004 387.319 38.004ZM391.495 42V37.32L392.251 33.072L391.495 28.896V24.612H396.175V42H391.495ZM401.067 42V24.612H405.819V42H401.067ZM403.443 21.804C402.675 21.804 402.039 21.552 401.535 21.048C401.031 20.52 400.779 19.872 400.779 19.104C400.779 18.36 401.031 17.724 401.535 17.196C402.039 16.668 402.675 16.404 403.443 16.404C404.235 16.404 404.871 16.668 405.351 17.196C405.855 17.724 406.107 18.36 406.107 19.104C406.107 19.872 405.855 20.52 405.351 21.048C404.871 21.552 404.235 21.804 403.443 21.804ZM422.416 42V32.028C422.416 30.996 422.092 30.156 421.444 29.508C420.796 28.86 419.956 28.536 418.924 28.536C418.252 28.536 417.652 28.68 417.124 28.968C416.596 29.256 416.176 29.664 415.864 30.192C415.576 30.72 415.432 31.332 415.432 32.028L413.596 31.092C413.596 29.724 413.884 28.536 414.46 27.528C415.06 26.496 415.876 25.692 416.908 25.116C417.964 24.54 419.152 24.252 420.472 24.252C421.744 24.252 422.884 24.576 423.892 25.224C424.9 25.848 425.692 26.676 426.268 27.708C426.844 28.716 427.132 29.808 427.132 30.984V42H422.416ZM410.716 42V24.612H415.432V42H410.716ZM211.593 87V61.692H215.049L225.309 78.108H223.329L233.553 61.692H237.009V87H232.149V70.08L233.085 70.368L225.957 81.816H222.645L215.517 70.368L216.489 70.08V87H211.593ZM249.667 87.36C248.083 87.36 246.655 86.964 245.383 86.172C244.111 85.38 243.115 84.3 242.395 82.932C241.675 81.564 241.315 80.028 241.315 78.324C241.315 76.596 241.675 75.048 242.395 73.68C243.115 72.312 244.111 71.232 245.383 70.44C246.655 69.648 248.083 69.252 249.667 69.252C250.915 69.252 252.031 69.504 253.015 70.008C253.999 70.512 254.779 71.22 255.355 72.132C255.955 73.02 256.279 74.028 256.327 75.156V81.42C256.279 82.572 255.955 83.592 255.355 84.48C254.779 85.368 253.999 86.076 253.015 86.604C252.031 87.108 250.915 87.36 249.667 87.36ZM250.531 83.004C251.851 83.004 252.919 82.572 253.735 81.708C254.551 80.82 254.959 79.68 254.959 78.288C254.959 77.376 254.767 76.572 254.383 75.876C254.023 75.156 253.507 74.604 252.835 74.22C252.187 73.812 251.419 73.608 250.531 73.608C249.667 73.608 248.899 73.812 248.227 74.22C247.579 74.604 247.063 75.156 246.679 75.876C246.319 76.572 246.139 77.376 246.139 78.288C246.139 79.224 246.319 80.052 246.679 80.772C247.063 81.468 247.579 82.02 248.227 82.428C248.899 82.812 249.667 83.004 250.531 83.004ZM254.707 87V82.32L255.463 78.072L254.707 73.896V69.612H259.387V87H254.707ZM275.979 87V77.028C275.979 75.996 275.655 75.156 275.007 74.508C274.359 73.86 273.519 73.536 272.487 73.536C271.815 73.536 271.215 73.68 270.687 73.968C270.159 74.256 269.739 74.664 269.427 75.192C269.139 75.72 268.995 76.332 268.995 77.028L267.159 76.092C267.159 74.724 267.447 73.536 268.023 72.528C268.623 71.496 269.439 70.692 270.471 70.116C271.527 69.54 272.715 69.252 274.035 69.252C275.307 69.252 276.447 69.576 277.455 70.224C278.463 70.848 279.255 71.676 279.831 72.708C280.407 73.716 280.695 74.808 280.695 75.984V87H275.979ZM264.279 87V69.612H268.995V87H264.279ZM292.486 87.36C290.902 87.36 289.474 86.964 288.202 86.172C286.93 85.38 285.934 84.3 285.214 82.932C284.494 81.564 284.134 80.028 284.134 78.324C284.134 76.596 284.494 75.048 285.214 73.68C285.934 72.312 286.93 71.232 288.202 70.44C289.474 69.648 290.902 69.252 292.486 69.252C293.734 69.252 294.85 69.504 295.834 70.008C296.818 70.512 297.598 71.22 298.174 72.132C298.774 73.02 299.098 74.028 299.146 75.156V81.42C299.098 82.572 298.774 83.592 298.174 84.48C297.598 85.368 296.818 86.076 295.834 86.604C294.85 87.108 293.734 87.36 292.486 87.36ZM293.35 83.004C294.67 83.004 295.738 82.572 296.554 81.708C297.37 80.82 297.778 79.68 297.778 78.288C297.778 77.376 297.586 76.572 297.202 75.876C296.842 75.156 296.326 74.604 295.654 74.22C295.006 73.812 294.238 73.608 293.35 73.608C292.486 73.608 291.718 73.812 291.046 74.22C290.398 74.604 289.882 75.156 289.498 75.876C289.138 76.572 288.958 77.376 288.958 78.288C288.958 79.224 289.138 80.052 289.498 80.772C289.882 81.468 290.398 82.02 291.046 82.428C291.718 82.812 292.486 83.004 293.35 83.004ZM297.526 87V82.32L298.282 78.072L297.526 73.896V69.612H302.206V87H297.526ZM314.37 94.704C312.522 94.704 310.89 94.368 309.474 93.696C308.058 93.048 306.93 92.124 306.09 90.924L309.078 87.936C309.75 88.728 310.494 89.328 311.31 89.736C312.15 90.168 313.158 90.384 314.334 90.384C315.798 90.384 316.95 90.012 317.79 89.268C318.654 88.524 319.086 87.492 319.086 86.172V81.816L319.878 78L319.122 74.184V69.612H323.802V86.1C323.802 87.828 323.394 89.328 322.578 90.6C321.786 91.896 320.682 92.904 319.266 93.624C317.85 94.344 316.218 94.704 314.37 94.704ZM314.154 86.532C312.594 86.532 311.19 86.16 309.942 85.416C308.694 84.648 307.71 83.604 306.99 82.284C306.294 80.964 305.946 79.488 305.946 77.856C305.946 76.224 306.294 74.76 306.99 73.464C307.71 72.168 308.694 71.148 309.942 70.404C311.19 69.636 312.594 69.252 314.154 69.252C315.45 69.252 316.59 69.504 317.574 70.008C318.582 70.512 319.374 71.208 319.95 72.096C320.526 72.96 320.838 73.98 320.886 75.156V80.628C320.838 81.78 320.514 82.812 319.914 83.724C319.338 84.612 318.546 85.308 317.538 85.812C316.554 86.292 315.426 86.532 314.154 86.532ZM315.09 82.248C315.954 82.248 316.698 82.068 317.322 81.708C317.97 81.324 318.474 80.808 318.834 80.16C319.194 79.488 319.374 78.732 319.374 77.892C319.374 77.028 319.194 76.272 318.834 75.624C318.474 74.976 317.97 74.472 317.322 74.112C316.698 73.728 315.954 73.536 315.09 73.536C314.226 73.536 313.47 73.728 312.822 74.112C312.174 74.472 311.67 74.988 311.31 75.66C310.95 76.308 310.77 77.052 310.77 77.892C310.77 78.708 310.95 79.452 311.31 80.124C311.67 80.772 312.174 81.288 312.822 81.672C313.47 82.056 314.226 82.248 315.09 82.248ZM336.982 87.36C335.158 87.36 333.538 86.976 332.122 86.208C330.706 85.416 329.578 84.336 328.738 82.968C327.922 81.6 327.514 80.04 327.514 78.288C327.514 76.56 327.91 75.024 328.702 73.68C329.518 72.312 330.622 71.232 332.014 70.44C333.406 69.624 334.954 69.216 336.658 69.216C338.338 69.216 339.814 69.6 341.086 70.368C342.382 71.112 343.39 72.144 344.11 73.464C344.854 74.76 345.226 76.236 345.226 77.892C345.226 78.204 345.202 78.528 345.154 78.864C345.13 79.176 345.07 79.536 344.974 79.944L330.358 79.98V76.452L342.778 76.416L340.87 77.892C340.822 76.86 340.63 75.996 340.294 75.3C339.982 74.604 339.514 74.076 338.89 73.716C338.29 73.332 337.546 73.14 336.658 73.14C335.722 73.14 334.906 73.356 334.21 73.788C333.514 74.196 332.974 74.784 332.59 75.552C332.23 76.296 332.05 77.184 332.05 78.216C332.05 79.272 332.242 80.196 332.626 80.988C333.034 81.756 333.61 82.356 334.354 82.788C335.098 83.196 335.962 83.4 336.946 83.4C337.834 83.4 338.638 83.256 339.358 82.968C340.078 82.656 340.702 82.2 341.23 81.6L344.002 84.372C343.162 85.356 342.13 86.1 340.906 86.604C339.706 87.108 338.398 87.36 336.982 87.36ZM348.862 87V69.612H353.578V87H348.862ZM360.202 87V76.74C360.202 75.732 359.878 74.952 359.23 74.4C358.606 73.824 357.826 73.536 356.89 73.536C356.266 73.536 355.702 73.668 355.198 73.932C354.694 74.172 354.298 74.532 354.01 75.012C353.722 75.492 353.578 76.068 353.578 76.74L351.742 75.84C351.742 74.496 352.03 73.332 352.606 72.348C353.206 71.364 354.01 70.608 355.018 70.08C356.026 69.528 357.166 69.252 358.438 69.252C359.638 69.252 360.73 69.528 361.714 70.08C362.698 70.608 363.478 71.364 364.054 72.348C364.63 73.308 364.918 74.472 364.918 75.84V87H360.202ZM371.542 87V76.74C371.542 75.732 371.218 74.952 370.57 74.4C369.946 73.824 369.166 73.536 368.23 73.536C367.63 73.536 367.066 73.668 366.538 73.932C366.034 74.172 365.638 74.532 365.35 75.012C365.062 75.492 364.918 76.068 364.918 76.74L362.218 76.092C362.314 74.7 362.686 73.5 363.334 72.492C363.982 71.46 364.834 70.668 365.89 70.116C366.946 69.54 368.122 69.252 369.418 69.252C370.714 69.252 371.878 69.528 372.91 70.08C373.942 70.608 374.758 71.376 375.358 72.384C375.958 73.392 376.258 74.592 376.258 75.984V87H371.542ZM389.117 87.36C387.293 87.36 385.673 86.976 384.257 86.208C382.841 85.416 381.713 84.336 380.873 82.968C380.057 81.6 379.649 80.04 379.649 78.288C379.649 76.56 380.045 75.024 380.837 73.68C381.653 72.312 382.757 71.232 384.149 70.44C385.541 69.624 387.089 69.216 388.793 69.216C390.473 69.216 391.949 69.6 393.221 70.368C394.517 71.112 395.525 72.144 396.245 73.464C396.989 74.76 397.361 76.236 397.361 77.892C397.361 78.204 397.337 78.528 397.289 78.864C397.265 79.176 397.205 79.536 397.109 79.944L382.493 79.98V76.452L394.913 76.416L393.005 77.892C392.957 76.86 392.765 75.996 392.429 75.3C392.117 74.604 391.649 74.076 391.025 73.716C390.425 73.332 389.681 73.14 388.793 73.14C387.857 73.14 387.041 73.356 386.345 73.788C385.649 74.196 385.109 74.784 384.725 75.552C384.365 76.296 384.185 77.184 384.185 78.216C384.185 79.272 384.377 80.196 384.761 80.988C385.169 81.756 385.745 82.356 386.489 82.788C387.233 83.196 388.097 83.4 389.081 83.4C389.969 83.4 390.773 83.256 391.493 82.968C392.213 82.656 392.837 82.2 393.365 81.6L396.137 84.372C395.297 85.356 394.265 86.1 393.041 86.604C391.841 87.108 390.533 87.36 389.117 87.36ZM412.698 87V77.028C412.698 75.996 412.374 75.156 411.726 74.508C411.078 73.86 410.238 73.536 409.206 73.536C408.534 73.536 407.934 73.68 407.406 73.968C406.878 74.256 406.458 74.664 406.146 75.192C405.858 75.72 405.714 76.332 405.714 77.028L403.878 76.092C403.878 74.724 404.166 73.536 404.742 72.528C405.342 71.496 406.158 70.692 407.19 70.116C408.246 69.54 409.434 69.252 410.754 69.252C412.026 69.252 413.166 69.576 414.174 70.224C415.182 70.848 415.974 71.676 416.55 72.708C417.126 73.716 417.414 74.808 417.414 75.984V87H412.698ZM400.998 87V69.612H405.714V87H400.998ZM424.278 87V62.376H428.994V87H424.278ZM420.21 73.752V69.612H433.062V73.752H420.21Z" fill="white"/>
<defs>
<linearGradient id="paint0_linear_204_1073" x1="60.9077" y1="52.1871" x2="34.9731" y2="52.1871" gradientUnits="userSpaceOnUse">
<stop stop-color="#01A6FF"/>
<stop offset="1" stop-color="#0C395F"/>
</linearGradient>
<linearGradient id="paint1_linear_204_1073" x1="25.9523" y1="5.9552" x2="0.0176626" y2="5.9552" gradientUnits="userSpaceOnUse">
<stop stop-color="#01A6FF"/>
<stop offset="1" stop-color="#0C395F"/>
</linearGradient>
<linearGradient id="paint2_linear_204_1073" x1="21.4419" y1="52.1871" x2="3.40037" y2="52.1871" gradientUnits="userSpaceOnUse">
<stop stop-color="#01A6FF"/>
<stop offset="1" stop-color="#0C395F"/>
</linearGradient>
<linearGradient id="paint3_linear_204_1073" x1="51.8869" y1="96.1641" x2="31.5902" y2="96.1641" gradientUnits="userSpaceOnUse">
<stop stop-color="#01A6FF"/>
<stop offset="1" stop-color="#0C395F"/>
</linearGradient>
<linearGradient id="paint4_linear_204_1073" x1="189.453" y1="45.4213" x2="-127.4" y2="39.7834" gradientUnits="userSpaceOnUse">
<stop stop-color="#01A6FF"/>
<stop offset="1" stop-color="#0C395F"/>
</linearGradient>
</defs>
</svg>
