<svg width="444" height="102" viewBox="0 0 444 102" fill="none" xmlns="http://www.w3.org/2000/svg">
<path d="M39.1742 58.5049C39.438 58.541 39.7057 58.541 39.9715 58.5596H54.9204C55.1862 58.542 55.4539 58.542 55.7177 58.5049C56.2463 58.4326 56.7631 58.287 57.2536 58.074C59.7989 56.968 61.1912 54.0964 60.6538 51.5111C60.2131 49.3899 58.5502 47.6381 56.5003 47.0636C56.2443 46.9913 55.9786 46.9551 55.7177 46.9004C55.4519 46.8819 55.1862 46.8643 54.9204 46.8457H39.9715C39.2651 46.8936 39.0784 46.8701 38.3916 47.0626C37.8776 47.2062 37.3852 47.4202 36.9289 47.6977C34.8546 48.9591 33.7506 51.5492 34.2381 53.8932C34.7354 56.288 36.8019 58.1786 39.1742 58.5049Z" fill="url(#paint0_linear_204_1074)"/>
<path d="M5.05214 11.6582C5.31594 11.6944 5.58374 11.6944 5.84944 11.7129H20.7984C21.0641 11.6944 21.3318 11.6944 21.5956 11.6582C22.1242 11.5859 22.6411 11.4413 23.1316 11.2283C25.6768 10.1223 27.0691 7.2507 26.5317 4.6654C26.0911 2.5443 24.4281 0.792399 22.3783 0.217899C22.1223 0.145599 21.8565 0.109401 21.5956 0.0547009C21.3299 0.0362009 21.0641 0.0186 20.7984 0H5.84944C5.14304 0.0479 4.95644 0.0243999 4.26954 0.2169C3.75564 0.3605 3.26324 0.574499 2.80694 0.851999C0.732636 2.1134 -0.371463 4.7026 0.116037 7.0475C0.613437 9.4413 2.67984 11.3319 5.05214 11.6582Z" fill="url(#paint1_linear_204_1074)"/>
<path d="M18.1726 47.0655C17.9166 46.9932 17.6509 46.9571 17.39 46.9024C17.1243 46.8838 16.8585 46.8662 16.5927 46.8477H8.51149C7.80509 46.8955 7.61849 46.8721 6.93159 47.0646C6.41769 47.2082 5.92529 47.4222 5.46899 47.6996C3.39469 48.961 2.29059 51.5512 2.77819 53.8952C3.27549 56.288 5.34199 58.1795 7.71419 58.5049C7.97799 58.541 8.24579 58.541 8.51149 58.5596H16.5927C16.8585 58.542 17.1262 58.542 17.39 58.5049C17.9186 58.4326 18.4355 58.287 18.926 58.074C21.4712 56.968 22.8635 54.0964 22.3271 51.5111C21.8854 49.3919 20.2235 47.6401 18.1726 47.0655Z" fill="url(#paint2_linear_204_1074)"/>
<path d="M47.4002 90.5032C47.1442 90.4312 46.8784 90.3951 46.6176 90.3401C46.3518 90.3211 46.086 90.3042 45.8203 90.2852H37.7391C37.0326 90.3342 36.846 90.3102 36.1592 90.5022C35.6443 90.6462 35.1528 90.8602 34.6965 91.1372C32.6222 92.3992 31.5181 94.9882 32.0057 97.3332C32.503 99.7252 34.5695 101.617 36.9418 101.942C37.2056 101.979 37.4733 101.979 37.7391 101.997H45.8203C46.086 101.979 46.3538 101.979 46.6176 101.942C47.1461 101.87 47.663 101.725 48.1535 101.512C50.6987 100.406 52.091 97.5351 51.5536 94.9501C51.114 92.8301 49.451 91.0782 47.4002 90.5032Z" fill="url(#paint3_linear_204_1074)"/>
<path d="M189.473 27.6692C189.471 27.6213 189.469 27.5735 189.465 27.5256C189.458 27.381 189.45 27.2364 189.428 27.0937C189.292 26.1909 188.88 25.337 188.259 24.6677C187.939 24.3218 187.775 24.2075 187.487 24.015C187.42 23.9672 187.35 23.9212 187.28 23.8773C187.253 23.8587 187.224 23.8392 187.194 23.8196L146.977 0.600853C146.772 0.502153 146.574 0.387852 146.362 0.304752C145.794 0.0820524 145.632 0.0917531 145.034 0.00195312C144.829 0.00195312 144.625 0.00285144 144.421 0.0126514C144.369 0.00875144 144.316 0.00585312 144.264 0.00195312H45.8197C45.1133 0.0497531 44.9267 0.026353 44.2398 0.218853C43.7249 0.362453 43.2335 0.576453 42.7772 0.853853C40.7029 2.11525 39.5988 4.70445 40.0864 7.04935C40.5837 9.44225 42.6502 11.3338 45.0225 11.6592C45.2863 11.6953 45.554 11.6953 45.8197 11.7139H73.0187C73.2887 11.7393 73.7257 11.7794 73.9947 11.8048C74.1957 11.8419 74.3957 11.8761 74.5917 11.9308C76.6427 12.5053 78.3047 14.2582 78.7457 16.3784C79.2827 18.9637 77.8907 21.8352 75.3457 22.9412C74.8557 23.1542 74.3387 23.2989 73.8097 23.3712C73.5457 23.4073 73.2777 23.4073 73.0117 23.4259H5.85042C5.14402 23.4737 4.95742 23.4503 4.27052 23.6428C3.75662 23.7864 3.26412 24.0004 2.80782 24.2779C0.73352 25.5392 -0.37048 28.1284 0.11702 30.4734C0.61432 32.8662 2.68082 34.7578 5.05312 35.0831C5.31692 35.1193 5.58462 35.1193 5.85042 35.1378H86.7087C86.9777 35.1632 87.4147 35.2033 87.6847 35.2287C87.8847 35.2658 88.0847 35.3 88.2817 35.3547C90.3317 35.9292 91.9947 37.6821 92.4347 39.8023C92.9727 42.3876 91.5797 45.2591 89.0347 46.3652C88.5457 46.5782 88.0287 46.7228 87.4987 46.7961C87.2347 46.8322 86.9677 46.8322 86.7017 46.8508H74.6887C73.9827 46.8986 73.7957 46.8752 73.1087 47.0677C72.5947 47.2113 72.1027 47.4253 71.6467 47.7028C69.572 48.9641 68.4689 51.5543 68.9554 53.8983C69.4528 56.2911 71.5197 58.1827 73.8917 58.508C74.1557 58.5442 74.4227 58.5442 74.6887 58.5627H104.333C106.937 58.5627 109.047 56.4523 109.047 53.8484V37.2209C109.047 36.5389 109.786 36.1119 110.377 36.4529L131.126 48.4326C136.698 51.6491 140.13 57.5945 140.13 64.0284V74.508C140.13 81.182 132.907 85.352 127.128 82.015L110.094 72.159C109.512 71.823 109.086 71.262 108.951 70.605C108.512 68.4613 106.61 66.8628 104.333 66.8628H30.225C29.5186 66.9107 29.3319 66.8872 28.6451 67.0797C28.1302 67.2233 27.6387 67.4373 27.1824 67.7148C25.1081 68.9762 24.005 71.565 24.4916 73.91C24.9889 76.303 27.0554 78.195 29.4277 78.52C29.6915 78.556 29.9592 78.556 30.225 78.575H80.2177C80.4877 78.6 80.9247 78.64 81.1937 78.666C81.3947 78.703 81.5947 78.737 81.7907 78.792C83.8407 79.366 85.5037 81.119 85.9447 83.239C86.4817 85.825 85.0897 88.696 82.5447 89.802C82.0547 90.015 81.5377 90.16 81.0087 90.233C80.7447 90.269 80.4767 90.269 80.2107 90.288H65.4615C64.7551 90.336 64.5684 90.312 63.8816 90.505C63.3676 90.648 62.8752 90.862 62.4189 91.14C60.3446 92.401 59.2406 94.99 59.7281 97.335C60.2254 99.728 62.2919 101.62 64.6642 101.945C64.928 101.981 65.1957 101.981 65.4615 102H144.407C144.438 101.998 144.468 101.996 144.5 101.995C144.57 101.998 144.639 102.001 144.71 102C144.819 102.001 144.929 101.996 145.037 101.988C145.158 101.979 145.278 101.964 145.398 101.945C145.728 101.894 146.053 101.807 146.365 101.684C146.478 101.64 146.587 101.586 146.695 101.532C146.71 101.526 146.725 101.521 146.739 101.514C147.092 101.361 147.421 101.172 147.727 100.956L187.196 78.169C187.384 78.041 187.582 77.927 187.76 77.784C188.473 77.216 189.007 76.432 189.276 75.56C189.456 74.977 189.433 74.816 189.479 74.213V27.7747C189.476 27.7396 189.474 27.7044 189.473 27.6692ZM146.25 10.7261L174.593 27.0898C175.12 27.3937 175.12 28.1548 174.593 28.4587L169.032 31.6693C168.08 32.2194 166.906 32.2194 165.955 31.6693L137.746 15.3827C137.152 15.0398 137.152 14.1829 137.746 13.84L143.142 10.7251C144.103 10.1711 145.288 10.1711 146.25 10.7261ZM143.157 44.8322L114.949 28.5466C114.355 28.2037 114.355 27.3468 114.949 27.0038L120.345 23.889C121.306 23.334 122.491 23.334 123.453 23.889L151.795 40.2527C152.322 40.5566 152.322 41.3177 151.795 41.6216L146.234 44.8322C145.282 45.3813 144.109 45.3813 143.157 44.8322ZM180.345 70.362C180.345 71.113 179.944 71.808 179.293 72.184L152.418 87.7C151.016 88.51 149.262 87.498 149.262 85.878V54.845C149.262 54.0937 149.662 53.399 150.314 53.0228L157.552 48.844C157.556 54.2266 157.563 61.8945 157.568 65.7382C157.569 66.8061 158.723 67.4715 159.651 66.9429L170.932 60.5168C171.629 60.1202 172.059 59.3795 172.059 58.5774V40.4677L177.189 37.5062C178.591 36.6962 180.345 37.7085 180.345 39.3284V70.362Z" fill="url(#paint4_linear_204_1074)"/>
<path d="M218.937 42.36C216.897 42.36 215.145 42.012 213.681 41.316C212.241 40.62 210.933 39.576 209.757 38.184L212.997 34.944C213.741 35.928 214.605 36.696 215.589 37.248C216.573 37.776 217.773 38.04 219.189 38.04C220.461 38.04 221.469 37.788 222.213 37.284C222.981 36.78 223.365 36.084 223.365 35.196C223.365 34.428 223.149 33.804 222.717 33.324C222.285 32.844 221.709 32.436 220.989 32.1C220.293 31.764 219.513 31.464 218.649 31.2C217.809 30.912 216.957 30.588 216.093 30.228C215.253 29.868 214.473 29.424 213.753 28.896C213.057 28.344 212.493 27.648 212.061 26.808C211.629 25.944 211.413 24.864 211.413 23.568C211.413 22.032 211.785 20.724 212.529 19.644C213.273 18.564 214.293 17.736 215.589 17.16C216.885 16.584 218.349 16.296 219.981 16.296C221.709 16.296 223.269 16.62 224.661 17.268C226.053 17.916 227.193 18.756 228.081 19.788L224.841 23.028C224.097 22.212 223.329 21.612 222.537 21.228C221.769 20.844 220.893 20.652 219.909 20.652C218.781 20.652 217.893 20.868 217.245 21.3C216.597 21.732 216.273 22.356 216.273 23.172C216.273 23.868 216.489 24.432 216.921 24.864C217.353 25.296 217.917 25.668 218.613 25.98C219.333 26.292 220.113 26.592 220.953 26.88C221.817 27.168 222.669 27.492 223.509 27.852C224.373 28.212 225.153 28.68 225.849 29.256C226.569 29.832 227.145 30.576 227.577 31.488C228.009 32.376 228.225 33.48 228.225 34.8C228.225 37.152 227.397 39 225.741 40.344C224.085 41.688 221.817 42.36 218.937 42.36ZM239.721 42.36C238.185 42.36 236.817 42.036 235.617 41.388C234.441 40.74 233.517 39.84 232.845 38.688C232.173 37.536 231.837 36.204 231.837 34.692V24.612H236.589V34.584C236.589 35.304 236.709 35.928 236.949 36.456C237.189 36.96 237.549 37.344 238.029 37.608C238.509 37.872 239.073 38.004 239.721 38.004C240.705 38.004 241.473 37.704 242.025 37.104C242.577 36.504 242.853 35.664 242.853 34.584V24.612H247.569V34.692C247.569 36.228 247.233 37.572 246.561 38.724C245.913 39.876 244.989 40.776 243.789 41.424C242.613 42.048 241.257 42.36 239.721 42.36ZM261.693 42.36C260.445 42.36 259.317 42.108 258.309 41.604C257.301 41.076 256.497 40.368 255.897 39.48C255.297 38.592 254.973 37.572 254.925 36.42V30.264C254.973 29.112 255.297 28.092 255.897 27.204C256.521 26.292 257.325 25.572 258.309 25.044C259.317 24.516 260.445 24.252 261.693 24.252C263.301 24.252 264.741 24.648 266.013 25.44C267.285 26.232 268.281 27.312 269.001 28.68C269.745 30.048 270.117 31.596 270.117 33.324C270.117 35.028 269.745 36.564 269.001 37.932C268.281 39.3 267.285 40.38 266.013 41.172C264.741 41.964 263.301 42.36 261.693 42.36ZM252.045 49.272V24.612H256.761V29.184L255.969 33.396L256.725 37.608V49.272H252.045ZM260.865 38.004C261.729 38.004 262.497 37.812 263.169 37.428C263.841 37.02 264.357 36.468 264.717 35.772C265.101 35.052 265.293 34.224 265.293 33.288C265.293 32.376 265.101 31.572 264.717 30.876C264.357 30.156 263.841 29.604 263.169 29.22C262.497 28.812 261.729 28.608 260.865 28.608C260.025 28.608 259.269 28.812 258.597 29.22C257.925 29.604 257.397 30.156 257.013 30.876C256.653 31.572 256.473 32.376 256.473 33.288C256.473 34.224 256.653 35.052 257.013 35.772C257.397 36.468 257.913 37.02 258.561 37.428C259.233 37.812 260.001 38.004 260.865 38.004ZM283.577 42.36C282.329 42.36 281.201 42.108 280.193 41.604C279.185 41.076 278.381 40.368 277.781 39.48C277.181 38.592 276.857 37.572 276.809 36.42V30.264C276.857 29.112 277.181 28.092 277.781 27.204C278.405 26.292 279.209 25.572 280.193 25.044C281.201 24.516 282.329 24.252 283.577 24.252C285.185 24.252 286.625 24.648 287.897 25.44C289.169 26.232 290.165 27.312 290.885 28.68C291.629 30.048 292.001 31.596 292.001 33.324C292.001 35.028 291.629 36.564 290.885 37.932C290.165 39.3 289.169 40.38 287.897 41.172C286.625 41.964 285.185 42.36 283.577 42.36ZM273.929 49.272V24.612H278.645V29.184L277.853 33.396L278.609 37.608V49.272H273.929ZM282.749 38.004C283.613 38.004 284.381 37.812 285.053 37.428C285.725 37.02 286.241 36.468 286.601 35.772C286.985 35.052 287.177 34.224 287.177 33.288C287.177 32.376 286.985 31.572 286.601 30.876C286.241 30.156 285.725 29.604 285.053 29.22C284.381 28.812 283.613 28.608 282.749 28.608C281.909 28.608 281.153 28.812 280.481 29.22C279.809 29.604 279.281 30.156 278.897 30.876C278.537 31.572 278.357 32.376 278.357 33.288C278.357 34.224 278.537 35.052 278.897 35.772C279.281 36.468 279.797 37.02 280.445 37.428C281.117 37.812 281.885 38.004 282.749 38.004ZM295.813 42V15.972H300.529V42H295.813ZM310.9 42.144L303.628 24.612H308.74L313.564 38.004H311.836L316.84 24.612H321.988L314.248 42.144H310.9ZM306.076 49.272L311.368 38.076L314.248 42.144L311.08 49.272H306.076ZM345.088 42.36C343.24 42.36 341.524 42.036 339.94 41.388C338.356 40.716 336.964 39.792 335.764 38.616C334.588 37.416 333.676 36.024 333.028 34.44C332.404 32.856 332.092 31.152 332.092 29.328C332.092 27.504 332.404 25.8 333.028 24.216C333.676 22.632 334.588 21.252 335.764 20.076C336.964 18.9 338.344 17.976 339.904 17.304C341.488 16.632 343.216 16.296 345.088 16.296C347.104 16.296 348.88 16.632 350.416 17.304C351.952 17.952 353.308 18.852 354.484 20.004L351.172 23.316C350.476 22.548 349.624 21.948 348.616 21.516C347.608 21.084 346.432 20.868 345.088 20.868C343.912 20.868 342.832 21.072 341.848 21.48C340.888 21.864 340.048 22.44 339.328 23.208C338.608 23.952 338.056 24.852 337.672 25.908C337.288 26.94 337.096 28.08 337.096 29.328C337.096 30.6 337.288 31.752 337.672 32.784C338.056 33.816 338.608 34.716 339.328 35.484C340.048 36.228 340.888 36.804 341.848 37.212C342.832 37.62 343.912 37.824 345.088 37.824C346.504 37.824 347.716 37.608 348.724 37.176C349.756 36.744 350.62 36.132 351.316 35.34L354.628 38.652C353.452 39.828 352.084 40.74 350.524 41.388C348.964 42.036 347.152 42.36 345.088 42.36ZM369.948 42V32.028C369.948 30.996 369.624 30.156 368.976 29.508C368.328 28.86 367.488 28.536 366.456 28.536C365.784 28.536 365.184 28.68 364.656 28.968C364.128 29.256 363.708 29.664 363.396 30.192C363.108 30.72 362.964 31.332 362.964 32.028L361.128 31.092C361.128 29.724 361.416 28.536 361.992 27.528C362.568 26.496 363.36 25.692 364.368 25.116C365.4 24.54 366.576 24.252 367.896 24.252C369.216 24.252 370.38 24.54 371.388 25.116C372.42 25.692 373.224 26.484 373.8 27.492C374.376 28.5 374.664 29.664 374.664 30.984V42H369.948ZM358.248 42V15.972H362.964V42H358.248ZM386.455 42.36C384.871 42.36 383.443 41.964 382.171 41.172C380.899 40.38 379.903 39.3 379.183 37.932C378.463 36.564 378.103 35.028 378.103 33.324C378.103 31.596 378.463 30.048 379.183 28.68C379.903 27.312 380.899 26.232 382.171 25.44C383.443 24.648 384.871 24.252 386.455 24.252C387.703 24.252 388.819 24.504 389.803 25.008C390.787 25.512 391.567 26.22 392.143 27.132C392.743 28.02 393.067 29.028 393.115 30.156V36.42C393.067 37.572 392.743 38.592 392.143 39.48C391.567 40.368 390.787 41.076 389.803 41.604C388.819 42.108 387.703 42.36 386.455 42.36ZM387.319 38.004C388.639 38.004 389.707 37.572 390.523 36.708C391.339 35.82 391.747 34.68 391.747 33.288C391.747 32.376 391.555 31.572 391.171 30.876C390.811 30.156 390.295 29.604 389.623 29.22C388.975 28.812 388.207 28.608 387.319 28.608C386.455 28.608 385.687 28.812 385.015 29.22C384.367 29.604 383.851 30.156 383.467 30.876C383.107 31.572 382.927 32.376 382.927 33.288C382.927 34.224 383.107 35.052 383.467 35.772C383.851 36.468 384.367 37.02 385.015 37.428C385.687 37.812 386.455 38.004 387.319 38.004ZM391.495 42V37.32L392.251 33.072L391.495 28.896V24.612H396.175V42H391.495ZM401.067 42V24.612H405.819V42H401.067ZM403.443 21.804C402.675 21.804 402.039 21.552 401.535 21.048C401.031 20.52 400.779 19.872 400.779 19.104C400.779 18.36 401.031 17.724 401.535 17.196C402.039 16.668 402.675 16.404 403.443 16.404C404.235 16.404 404.871 16.668 405.351 17.196C405.855 17.724 406.107 18.36 406.107 19.104C406.107 19.872 405.855 20.52 405.351 21.048C404.871 21.552 404.235 21.804 403.443 21.804ZM422.416 42V32.028C422.416 30.996 422.092 30.156 421.444 29.508C420.796 28.86 419.956 28.536 418.924 28.536C418.252 28.536 417.652 28.68 417.124 28.968C416.596 29.256 416.176 29.664 415.864 30.192C415.576 30.72 415.432 31.332 415.432 32.028L413.596 31.092C413.596 29.724 413.884 28.536 414.46 27.528C415.06 26.496 415.876 25.692 416.908 25.116C417.964 24.54 419.152 24.252 420.472 24.252C421.744 24.252 422.884 24.576 423.892 25.224C424.9 25.848 425.692 26.676 426.268 27.708C426.844 28.716 427.132 29.808 427.132 30.984V42H422.416ZM410.716 42V24.612H415.432V42H410.716ZM211.593 87V61.692H215.049L225.309 78.108H223.329L233.553 61.692H237.009V87H232.149V70.08L233.085 70.368L225.957 81.816H222.645L215.517 70.368L216.489 70.08V87H211.593ZM249.667 87.36C248.083 87.36 246.655 86.964 245.383 86.172C244.111 85.38 243.115 84.3 242.395 82.932C241.675 81.564 241.315 80.028 241.315 78.324C241.315 76.596 241.675 75.048 242.395 73.68C243.115 72.312 244.111 71.232 245.383 70.44C246.655 69.648 248.083 69.252 249.667 69.252C250.915 69.252 252.031 69.504 253.015 70.008C253.999 70.512 254.779 71.22 255.355 72.132C255.955 73.02 256.279 74.028 256.327 75.156V81.42C256.279 82.572 255.955 83.592 255.355 84.48C254.779 85.368 253.999 86.076 253.015 86.604C252.031 87.108 250.915 87.36 249.667 87.36ZM250.531 83.004C251.851 83.004 252.919 82.572 253.735 81.708C254.551 80.82 254.959 79.68 254.959 78.288C254.959 77.376 254.767 76.572 254.383 75.876C254.023 75.156 253.507 74.604 252.835 74.22C252.187 73.812 251.419 73.608 250.531 73.608C249.667 73.608 248.899 73.812 248.227 74.22C247.579 74.604 247.063 75.156 246.679 75.876C246.319 76.572 246.139 77.376 246.139 78.288C246.139 79.224 246.319 80.052 246.679 80.772C247.063 81.468 247.579 82.02 248.227 82.428C248.899 82.812 249.667 83.004 250.531 83.004ZM254.707 87V82.32L255.463 78.072L254.707 73.896V69.612H259.387V87H254.707ZM275.979 87V77.028C275.979 75.996 275.655 75.156 275.007 74.508C274.359 73.86 273.519 73.536 272.487 73.536C271.815 73.536 271.215 73.68 270.687 73.968C270.159 74.256 269.739 74.664 269.427 75.192C269.139 75.72 268.995 76.332 268.995 77.028L267.159 76.092C267.159 74.724 267.447 73.536 268.023 72.528C268.623 71.496 269.439 70.692 270.471 70.116C271.527 69.54 272.715 69.252 274.035 69.252C275.307 69.252 276.447 69.576 277.455 70.224C278.463 70.848 279.255 71.676 279.831 72.708C280.407 73.716 280.695 74.808 280.695 75.984V87H275.979ZM264.279 87V69.612H268.995V87H264.279ZM292.486 87.36C290.902 87.36 289.474 86.964 288.202 86.172C286.93 85.38 285.934 84.3 285.214 82.932C284.494 81.564 284.134 80.028 284.134 78.324C284.134 76.596 284.494 75.048 285.214 73.68C285.934 72.312 286.93 71.232 288.202 70.44C289.474 69.648 290.902 69.252 292.486 69.252C293.734 69.252 294.85 69.504 295.834 70.008C296.818 70.512 297.598 71.22 298.174 72.132C298.774 73.02 299.098 74.028 299.146 75.156V81.42C299.098 82.572 298.774 83.592 298.174 84.48C297.598 85.368 296.818 86.076 295.834 86.604C294.85 87.108 293.734 87.36 292.486 87.36ZM293.35 83.004C294.67 83.004 295.738 82.572 296.554 81.708C297.37 80.82 297.778 79.68 297.778 78.288C297.778 77.376 297.586 76.572 297.202 75.876C296.842 75.156 296.326 74.604 295.654 74.22C295.006 73.812 294.238 73.608 293.35 73.608C292.486 73.608 291.718 73.812 291.046 74.22C290.398 74.604 289.882 75.156 289.498 75.876C289.138 76.572 288.958 77.376 288.958 78.288C288.958 79.224 289.138 80.052 289.498 80.772C289.882 81.468 290.398 82.02 291.046 82.428C291.718 82.812 292.486 83.004 293.35 83.004ZM297.526 87V82.32L298.282 78.072L297.526 73.896V69.612H302.206V87H297.526ZM314.37 94.704C312.522 94.704 310.89 94.368 309.474 93.696C308.058 93.048 306.93 92.124 306.09 90.924L309.078 87.936C309.75 88.728 310.494 89.328 311.31 89.736C312.15 90.168 313.158 90.384 314.334 90.384C315.798 90.384 316.95 90.012 317.79 89.268C318.654 88.524 319.086 87.492 319.086 86.172V81.816L319.878 78L319.122 74.184V69.612H323.802V86.1C323.802 87.828 323.394 89.328 322.578 90.6C321.786 91.896 320.682 92.904 319.266 93.624C317.85 94.344 316.218 94.704 314.37 94.704ZM314.154 86.532C312.594 86.532 311.19 86.16 309.942 85.416C308.694 84.648 307.71 83.604 306.99 82.284C306.294 80.964 305.946 79.488 305.946 77.856C305.946 76.224 306.294 74.76 306.99 73.464C307.71 72.168 308.694 71.148 309.942 70.404C311.19 69.636 312.594 69.252 314.154 69.252C315.45 69.252 316.59 69.504 317.574 70.008C318.582 70.512 319.374 71.208 319.95 72.096C320.526 72.96 320.838 73.98 320.886 75.156V80.628C320.838 81.78 320.514 82.812 319.914 83.724C319.338 84.612 318.546 85.308 317.538 85.812C316.554 86.292 315.426 86.532 314.154 86.532ZM315.09 82.248C315.954 82.248 316.698 82.068 317.322 81.708C317.97 81.324 318.474 80.808 318.834 80.16C319.194 79.488 319.374 78.732 319.374 77.892C319.374 77.028 319.194 76.272 318.834 75.624C318.474 74.976 317.97 74.472 317.322 74.112C316.698 73.728 315.954 73.536 315.09 73.536C314.226 73.536 313.47 73.728 312.822 74.112C312.174 74.472 311.67 74.988 311.31 75.66C310.95 76.308 310.77 77.052 310.77 77.892C310.77 78.708 310.95 79.452 311.31 80.124C311.67 80.772 312.174 81.288 312.822 81.672C313.47 82.056 314.226 82.248 315.09 82.248ZM336.982 87.36C335.158 87.36 333.538 86.976 332.122 86.208C330.706 85.416 329.578 84.336 328.738 82.968C327.922 81.6 327.514 80.04 327.514 78.288C327.514 76.56 327.91 75.024 328.702 73.68C329.518 72.312 330.622 71.232 332.014 70.44C333.406 69.624 334.954 69.216 336.658 69.216C338.338 69.216 339.814 69.6 341.086 70.368C342.382 71.112 343.39 72.144 344.11 73.464C344.854 74.76 345.226 76.236 345.226 77.892C345.226 78.204 345.202 78.528 345.154 78.864C345.13 79.176 345.07 79.536 344.974 79.944L330.358 79.98V76.452L342.778 76.416L340.87 77.892C340.822 76.86 340.63 75.996 340.294 75.3C339.982 74.604 339.514 74.076 338.89 73.716C338.29 73.332 337.546 73.14 336.658 73.14C335.722 73.14 334.906 73.356 334.21 73.788C333.514 74.196 332.974 74.784 332.59 75.552C332.23 76.296 332.05 77.184 332.05 78.216C332.05 79.272 332.242 80.196 332.626 80.988C333.034 81.756 333.61 82.356 334.354 82.788C335.098 83.196 335.962 83.4 336.946 83.4C337.834 83.4 338.638 83.256 339.358 82.968C340.078 82.656 340.702 82.2 341.23 81.6L344.002 84.372C343.162 85.356 342.13 86.1 340.906 86.604C339.706 87.108 338.398 87.36 336.982 87.36ZM348.862 87V69.612H353.578V87H348.862ZM360.202 87V76.74C360.202 75.732 359.878 74.952 359.23 74.4C358.606 73.824 357.826 73.536 356.89 73.536C356.266 73.536 355.702 73.668 355.198 73.932C354.694 74.172 354.298 74.532 354.01 75.012C353.722 75.492 353.578 76.068 353.578 76.74L351.742 75.84C351.742 74.496 352.03 73.332 352.606 72.348C353.206 71.364 354.01 70.608 355.018 70.08C356.026 69.528 357.166 69.252 358.438 69.252C359.638 69.252 360.73 69.528 361.714 70.08C362.698 70.608 363.478 71.364 364.054 72.348C364.63 73.308 364.918 74.472 364.918 75.84V87H360.202ZM371.542 87V76.74C371.542 75.732 371.218 74.952 370.57 74.4C369.946 73.824 369.166 73.536 368.23 73.536C367.63 73.536 367.066 73.668 366.538 73.932C366.034 74.172 365.638 74.532 365.35 75.012C365.062 75.492 364.918 76.068 364.918 76.74L362.218 76.092C362.314 74.7 362.686 73.5 363.334 72.492C363.982 71.46 364.834 70.668 365.89 70.116C366.946 69.54 368.122 69.252 369.418 69.252C370.714 69.252 371.878 69.528 372.91 70.08C373.942 70.608 374.758 71.376 375.358 72.384C375.958 73.392 376.258 74.592 376.258 75.984V87H371.542ZM389.117 87.36C387.293 87.36 385.673 86.976 384.257 86.208C382.841 85.416 381.713 84.336 380.873 82.968C380.057 81.6 379.649 80.04 379.649 78.288C379.649 76.56 380.045 75.024 380.837 73.68C381.653 72.312 382.757 71.232 384.149 70.44C385.541 69.624 387.089 69.216 388.793 69.216C390.473 69.216 391.949 69.6 393.221 70.368C394.517 71.112 395.525 72.144 396.245 73.464C396.989 74.76 397.361 76.236 397.361 77.892C397.361 78.204 397.337 78.528 397.289 78.864C397.265 79.176 397.205 79.536 397.109 79.944L382.493 79.98V76.452L394.913 76.416L393.005 77.892C392.957 76.86 392.765 75.996 392.429 75.3C392.117 74.604 391.649 74.076 391.025 73.716C390.425 73.332 389.681 73.14 388.793 73.14C387.857 73.14 387.041 73.356 386.345 73.788C385.649 74.196 385.109 74.784 384.725 75.552C384.365 76.296 384.185 77.184 384.185 78.216C384.185 79.272 384.377 80.196 384.761 80.988C385.169 81.756 385.745 82.356 386.489 82.788C387.233 83.196 388.097 83.4 389.081 83.4C389.969 83.4 390.773 83.256 391.493 82.968C392.213 82.656 392.837 82.2 393.365 81.6L396.137 84.372C395.297 85.356 394.265 86.1 393.041 86.604C391.841 87.108 390.533 87.36 389.117 87.36ZM412.698 87V77.028C412.698 75.996 412.374 75.156 411.726 74.508C411.078 73.86 410.238 73.536 409.206 73.536C408.534 73.536 407.934 73.68 407.406 73.968C406.878 74.256 406.458 74.664 406.146 75.192C405.858 75.72 405.714 76.332 405.714 77.028L403.878 76.092C403.878 74.724 404.166 73.536 404.742 72.528C405.342 71.496 406.158 70.692 407.19 70.116C408.246 69.54 409.434 69.252 410.754 69.252C412.026 69.252 413.166 69.576 414.174 70.224C415.182 70.848 415.974 71.676 416.55 72.708C417.126 73.716 417.414 74.808 417.414 75.984V87H412.698ZM400.998 87V69.612H405.714V87H400.998ZM424.278 87V62.376H428.994V87H424.278ZM420.21 73.752V69.612H433.062V73.752H420.21Z" fill="black"/>
<defs>
<linearGradient id="paint0_linear_204_1074" x1="60.9604" y1="52.5497" x2="-37.4853" y2="52.5497" gradientUnits="userSpaceOnUse">
<stop stop-color="#FF9305"/>
<stop offset="1" stop-color="#995803"/>
</linearGradient>
<linearGradient id="paint1_linear_204_1074" x1="26.6276" y1="6.3061" x2="-51.1481" y2="5.6055" gradientUnits="userSpaceOnUse">
<stop stop-color="#FF9305"/>
<stop offset="1" stop-color="#995803"/>
</linearGradient>
<linearGradient id="paint2_linear_204_1074" x1="22.4238" y1="52.5503" x2="-50.447" y2="52.5503" gradientUnits="userSpaceOnUse">
<stop stop-color="#FF9305"/>
<stop offset="1" stop-color="#995803"/>
</linearGradient>
<linearGradient id="paint3_linear_204_1074" x1="51.5015" y1="95.6442" x2="-44.1415" y2="95.9952" gradientUnits="userSpaceOnUse">
<stop stop-color="#FF9305"/>
<stop offset="1" stop-color="#995803"/>
</linearGradient>
<linearGradient id="paint4_linear_204_1074" x1="30.558" y1="50.9994" x2="160.572" y2="50.9994" gradientUnits="userSpaceOnUse">
<stop stop-color="#045CB8"/>
<stop offset="1" stop-color="#047ADB"/>
</linearGradient>
</defs>
</svg>
