<svg width="250" height="162" viewBox="0 0 250 162" fill="none" xmlns="http://www.w3.org/2000/svg">
<path d="M69.1725 88.5049C69.4363 88.541 69.704 88.541 69.9698 88.5596H84.9187C85.1845 88.542 85.4522 88.542 85.716 88.5049C86.2446 88.4326 86.7614 88.287 87.2519 88.074C89.7972 86.968 91.1895 84.0964 90.6521 81.5111C90.2114 79.3899 88.5485 77.6381 86.4986 77.0636C86.2426 76.9913 85.9769 76.9551 85.716 76.9004C85.4502 76.8819 85.1845 76.8643 84.9187 76.8457H69.9698C69.2634 76.8936 69.0767 76.8701 68.3899 77.0626C67.8759 77.2062 67.3835 77.4202 66.9272 77.6977C64.8529 78.9591 63.7489 81.5492 64.2364 83.8932C64.7337 86.288 66.8002 88.1786 69.1725 88.5049Z" fill="url(#paint0_linear_534_1029)"/>
<path d="M35.0504 41.6582C35.3142 41.6944 35.582 41.6944 35.8477 41.7129H50.7967C51.0624 41.6944 51.3301 41.6944 51.5939 41.6582C52.1225 41.5859 52.6394 41.4413 53.1299 41.2283C55.6751 40.1223 57.0674 37.2507 56.53 34.6654C56.0894 32.5443 54.4264 30.7924 52.3766 30.2179C52.1206 30.1456 51.8548 30.1094 51.5939 30.0547C51.3282 30.0362 51.0624 30.0186 50.7967 30H35.8477C35.1413 30.0479 34.9547 30.0244 34.2678 30.2169C33.7539 30.3605 33.2615 30.5745 32.8052 30.852C30.7309 32.1134 29.6268 34.7026 30.1143 37.0475C30.6117 39.4413 32.6781 41.3319 35.0504 41.6582Z" fill="url(#paint1_linear_534_1029)"/>
<path d="M48.1709 77.0655C47.9149 76.9932 47.6492 76.9571 47.3883 76.9024C47.1226 76.8838 46.8568 76.8662 46.591 76.8477H38.5098C37.8034 76.8955 37.6168 76.8721 36.9299 77.0646C36.416 77.2082 35.9236 77.4222 35.4673 77.6996C33.393 78.961 32.2889 81.5512 32.7765 83.8952C33.2738 86.288 35.3403 88.1795 37.7125 88.5049C37.9763 88.541 38.2441 88.541 38.5098 88.5596H46.591C46.8568 88.542 47.1245 88.542 47.3883 88.5049C47.9169 88.4326 48.4338 88.287 48.9243 88.074C51.4695 86.968 52.8618 84.0964 52.3254 81.5111C51.8837 79.3919 50.2218 77.6401 48.1709 77.0655Z" fill="url(#paint2_linear_534_1029)"/>
<path d="M77.3985 120.503C77.1425 120.431 76.8767 120.395 76.6159 120.34C76.3501 120.321 76.0843 120.304 75.8186 120.285H67.7374C67.0309 120.334 66.8443 120.31 66.1575 120.502C65.6426 120.646 65.1511 120.86 64.6948 121.137C62.6205 122.399 61.5164 124.988 62.004 127.333C62.5013 129.725 64.5678 131.617 66.9401 131.942C67.2039 131.979 67.4716 131.979 67.7374 131.997H75.8186C76.0843 131.979 76.3521 131.979 76.6159 131.942C77.1444 131.87 77.6613 131.725 78.1518 131.512C80.697 130.406 82.0893 127.535 81.5519 124.95C81.1123 122.83 79.4493 121.078 77.3985 120.503Z" fill="url(#paint3_linear_534_1029)"/>
<path d="M219.471 57.6692C219.469 57.6213 219.467 57.5735 219.463 57.5256C219.456 57.381 219.448 57.2364 219.426 57.0937C219.29 56.1909 218.878 55.337 218.257 54.6677C217.937 54.3218 217.773 54.2075 217.485 54.015C217.418 53.9672 217.348 53.9212 217.278 53.8773C217.251 53.8587 217.222 53.8392 217.192 53.8196L176.975 30.6009C176.77 30.5022 176.572 30.3879 176.36 30.3048C175.792 30.0821 175.63 30.0918 175.032 30.002C174.827 30.002 174.623 30.0029 174.419 30.0127C174.367 30.0088 174.314 30.0059 174.262 30.002H75.818C75.1116 30.0498 74.925 30.0264 74.2381 30.2189C73.7232 30.3625 73.2318 30.5765 72.7755 30.8539C70.7012 32.1153 69.5971 34.7045 70.0847 37.0494C70.582 39.4423 72.6485 41.3338 75.0208 41.6592C75.2846 41.6953 75.5523 41.6953 75.818 41.7139H103.017C103.287 41.7393 103.724 41.7794 103.993 41.8048C104.194 41.8419 104.394 41.8761 104.59 41.9308C106.641 42.5053 108.303 44.2582 108.744 46.3784C109.281 48.9637 107.889 51.8352 105.344 52.9412C104.854 53.1542 104.337 53.2989 103.808 53.3712C103.544 53.4073 103.276 53.4073 103.01 53.4259H35.8487C35.1423 53.4737 34.9557 53.4503 34.2688 53.6428C33.7549 53.7864 33.2624 54.0004 32.8061 54.2779C30.7318 55.5392 29.6278 58.1284 30.1153 60.4734C30.6126 62.8662 32.6791 64.7578 35.0514 65.0831C35.3152 65.1193 35.5829 65.1193 35.8487 65.1378H116.707C116.976 65.1632 117.413 65.2033 117.683 65.2287C117.883 65.2658 118.083 65.3 118.28 65.3547C120.33 65.9292 121.993 67.6821 122.433 69.8023C122.971 72.3876 121.578 75.2591 119.033 76.3652C118.544 76.5782 118.027 76.7228 117.497 76.7961C117.233 76.8322 116.966 76.8322 116.7 76.8508H104.687C103.981 76.8986 103.794 76.8752 103.107 77.0677C102.593 77.2113 102.101 77.4253 101.645 77.7028C99.5703 78.9641 98.4672 81.5543 98.9537 83.8983C99.4511 86.2911 101.518 88.1827 103.89 88.508C104.154 88.5442 104.421 88.5442 104.687 88.5627H134.331C136.935 88.5627 139.045 86.4523 139.045 83.8484V67.2209C139.045 66.5389 139.784 66.1119 140.375 66.4529L161.124 78.4326C166.696 81.6491 170.128 87.5945 170.128 94.0284V104.508C170.128 111.182 162.905 115.352 157.126 112.015L140.092 102.159C139.51 101.823 139.084 101.262 138.949 100.605C138.51 98.4613 136.608 96.8628 134.331 96.8628H60.2233C59.5169 96.9107 59.3302 96.8872 58.6434 97.0797C58.1285 97.2233 57.637 97.4373 57.1807 97.7148C55.1064 98.9762 54.0033 101.565 54.4899 103.91C54.9872 106.303 57.0537 108.195 59.426 108.52C59.6898 108.556 59.9575 108.556 60.2233 108.575H110.216C110.486 108.6 110.923 108.64 111.192 108.666C111.393 108.703 111.593 108.737 111.789 108.792C113.839 109.366 115.502 111.119 115.943 113.239C116.48 115.825 115.088 118.696 112.543 119.802C112.053 120.015 111.536 120.16 111.007 120.233C110.743 120.269 110.475 120.269 110.209 120.288H95.4598C94.7534 120.336 94.5667 120.312 93.8799 120.505C93.3659 120.648 92.8735 120.862 92.4172 121.14C90.3429 122.401 89.2389 124.99 89.7264 127.335C90.2237 129.728 92.2902 131.62 94.6625 131.945C94.9263 131.981 95.194 131.981 95.4598 132H174.405C174.436 131.998 174.466 131.996 174.498 131.995C174.568 131.998 174.637 132.001 174.708 132C174.817 132.001 174.927 131.996 175.035 131.988C175.156 131.979 175.276 131.964 175.396 131.945C175.726 131.894 176.051 131.807 176.363 131.684C176.476 131.64 176.585 131.586 176.693 131.532C176.708 131.526 176.723 131.521 176.737 131.514C177.09 131.361 177.419 131.172 177.725 130.956L217.194 108.169C217.382 108.041 217.58 107.927 217.758 107.784C218.471 107.216 219.005 106.432 219.274 105.56C219.454 104.977 219.431 104.816 219.477 104.213V57.7747C219.474 57.7396 219.472 57.7044 219.471 57.6692ZM176.248 40.7261L204.591 57.0898C205.118 57.3937 205.118 58.1548 204.591 58.4587L199.03 61.6693C198.078 62.2194 196.904 62.2194 195.953 61.6693L167.744 45.3827C167.15 45.0398 167.15 44.1829 167.744 43.84L173.14 40.7251C174.101 40.1711 175.286 40.1711 176.248 40.7261ZM173.155 74.8322L144.947 58.5466C144.353 58.2037 144.353 57.3468 144.947 57.0038L150.343 53.889C151.304 53.334 152.489 53.334 153.451 53.889L181.793 70.2527C182.32 70.5566 182.32 71.3177 181.793 71.6216L176.232 74.8322C175.28 75.3813 174.107 75.3813 173.155 74.8322ZM210.343 100.362C210.343 101.113 209.942 101.808 209.291 102.184L182.416 117.7C181.014 118.51 179.26 117.498 179.26 115.878V84.845C179.26 84.0937 179.66 83.399 180.312 83.0228L187.55 78.844C187.554 84.2266 187.561 91.8945 187.566 95.7382C187.567 96.8061 188.721 97.4715 189.649 96.9429L200.93 90.5168C201.627 90.1202 202.057 89.3795 202.057 88.5774V70.4677L207.187 67.5062C208.589 66.6962 210.343 67.7085 210.343 69.3284V100.362Z" fill="url(#paint4_linear_534_1029)"/>
<defs>
<linearGradient id="paint0_linear_534_1029" x1="90.9587" y1="82.5497" x2="-7.48704" y2="82.5497" gradientUnits="userSpaceOnUse">
<stop stop-color="#FF9305"/>
<stop offset="1" stop-color="#995803"/>
</linearGradient>
<linearGradient id="paint1_linear_534_1029" x1="56.6259" y1="36.3061" x2="-21.1498" y2="35.6055" gradientUnits="userSpaceOnUse">
<stop stop-color="#FF9305"/>
<stop offset="1" stop-color="#995803"/>
</linearGradient>
<linearGradient id="paint2_linear_534_1029" x1="52.4221" y1="82.5503" x2="-20.4487" y2="82.5503" gradientUnits="userSpaceOnUse">
<stop stop-color="#FF9305"/>
<stop offset="1" stop-color="#995803"/>
</linearGradient>
<linearGradient id="paint3_linear_534_1029" x1="81.4998" y1="125.644" x2="-14.1432" y2="125.995" gradientUnits="userSpaceOnUse">
<stop stop-color="#FF9305"/>
<stop offset="1" stop-color="#995803"/>
</linearGradient>
<linearGradient id="paint4_linear_534_1029" x1="60.5563" y1="80.9994" x2="190.57" y2="80.9994" gradientUnits="userSpaceOnUse">
<stop stop-color="#045CB8"/>
<stop offset="1" stop-color="#047ADB"/>
</linearGradient>
</defs>
</svg>
